<svg id="Layer_1" data-name="Layer 1" xmlns="http://www.w3.org/2000/svg" viewBox="0 0 350 350"><defs><style>.cls-1{fill:#159bed;}</style></defs><title>viisari-tunnus</title><path class="cls-1" d="M171.46,244.16a9.8,9.8,0,0,1-6.7-2.66C152.65,230.35,92,171.34,92,107.76a79.43,79.43,0,1,1,158.86,0c0,63.54-60.6,122.58-72.75,133.76A9.85,9.85,0,0,1,171.46,244.16ZM176.24,229l.06.05ZM171.46,45.32A62.45,62.45,0,0,0,109,107.76c0,50.5,46.3,100.68,62.45,116.64,16.13-16,62.44-66.16,62.44-116.64a62.08,62.08,0,0,0-60.78-62.43Z"/><path class="cls-1" d="M222.19,87.85h-6.07a45.9,45.9,0,0,0-43.19-30.43H170a45.9,45.9,0,0,0-43.19,30.43h-5.48a4.22,4.22,0,0,0-4.22,4.22V108.7a4.22,4.22,0,0,0,4.22,4.22h2.75v27.77a18.17,18.17,0,0,0,14,17.68v8.4a4.22,4.22,0,0,0,4.22,4.22h8a4.22,4.22,0,0,0,4.22-4.22v-7.88h33.73v7.88a4.22,4.22,0,0,0,4.22,4.22h8a4.22,4.22,0,0,0,4.22-4.22v-8.4a18.17,18.17,0,0,0,14-17.68V112.92h3.33a4.22,4.22,0,0,0,4.22-4.22V92.07A4.22,4.22,0,0,0,222.19,87.85ZM164.63,66.76h14.25a7,7,0,0,1,0,14H164.63a7,7,0,0,1,0-14Zm-13.86,82a7.34,7.34,0,1,1,7.34-7.34A7.34,7.34,0,0,1,150.77,148.81Zm42,0a7.34,7.34,0,1,1,7.34-7.34A7.34,7.34,0,0,1,192.75,148.81ZM211.32,121a6,6,0,0,1-6,6H137.61a6,6,0,0,1-6-6V98.37a10.52,10.52,0,0,1,10.52-10.52H200.8a10.52,10.52,0,0,1,10.52,10.52ZM201.37,114h-5.91V98.46a3.69,3.69,0,0,0-7.39,0v19.19a3.69,3.69,0,0,0,3.69,3.69h9.6a3.69,3.69,0,1,0,0-7.39Zm-24.5-6.8,5.47-6.27A3.69,3.69,0,1,0,176.78,96l-7.22,8.27V98.46a3.69,3.69,0,0,0-7.39,0v19.19a3.69,3.69,0,0,0,7.39,0v-2.12l2.31-2.65,4.88,6.9a3.69,3.69,0,0,0,6-4.26ZM155.7,94.77H141.35a3.69,3.69,0,1,0,0,7.39h3.48v15.5a3.69,3.69,0,0,0,7.39,0v-15.5h3.48a3.69,3.69,0,1,0,0-7.39Z"/><path class="cls-1" d="M73.68,271.32a6.2,6.2,0,0,1,3.25-.89,7.53,7.53,0,0,1,4.8,1.69,5.25,5.25,0,0,1,2.14,4.28,5.78,5.78,0,0,1-.67,2.59L63.72,319.25a6.76,6.76,0,0,1-2.88,3.07,8.5,8.5,0,0,1-8.27,0,6.76,6.76,0,0,1-2.88-3.07L30.19,279a5.67,5.67,0,0,1-.59-2.59,5.24,5.24,0,0,1,2.21-4.25,7.84,7.84,0,0,1,4.95-1.73,6.39,6.39,0,0,1,3.29.89A5.76,5.76,0,0,1,42.37,274l14.55,31.47L71.4,274A5.83,5.83,0,0,1,73.68,271.32Z"/><path class="cls-1" d="M91.89,321.5a6.64,6.64,0,0,1-1.81-4.91V277.08a6.54,6.54,0,0,1,1.81-4.83,6.65,6.65,0,0,1,4.91-1.81,6.87,6.87,0,0,1,5,1.81,6.46,6.46,0,0,1,1.85,4.83v39.51a6.56,6.56,0,0,1-1.85,4.91,6.87,6.87,0,0,1-5,1.81A6.65,6.65,0,0,1,91.89,321.5Z"/><path class="cls-1" d="M116.11,321.5a6.64,6.64,0,0,1-1.81-4.91V277.08a6.54,6.54,0,0,1,1.81-4.83,6.65,6.65,0,0,1,4.91-1.81,6.87,6.87,0,0,1,5,1.81,6.46,6.46,0,0,1,1.85,4.83v39.51A6.56,6.56,0,0,1,126,321.5a6.87,6.87,0,0,1-5,1.81A6.65,6.65,0,0,1,116.11,321.5Z"/><path class="cls-1" d="M145.66,322.24a25.14,25.14,0,0,1-8.31-3.58,6.34,6.34,0,0,1-1.81-2A5.56,5.56,0,0,1,135,314a5.87,5.87,0,0,1,1.33-3.84,3.92,3.92,0,0,1,3.1-1.62,5.67,5.67,0,0,1,1.85.3,11.22,11.22,0,0,1,2.21,1.1,24.12,24.12,0,0,0,6,2.44,28.34,28.34,0,0,0,6.76.74,13.47,13.47,0,0,0,6.61-1.3,4.13,4.13,0,0,0,2.25-3.8q0-1.7-2.11-2.91t-8-2.4A46.78,46.78,0,0,1,143.55,299a13.55,13.55,0,0,1-5.8-5.06,14,14,0,0,1-1.66-7.05,14.17,14.17,0,0,1,2.81-8.56,18.65,18.65,0,0,1,7.72-6,27,27,0,0,1,11-2.18,35.65,35.65,0,0,1,9.6,1.18,24.11,24.11,0,0,1,7.68,3.69,6,6,0,0,1,1.88,2,5.63,5.63,0,0,1,.56,2.63,6,6,0,0,1-1.29,3.84,3.81,3.81,0,0,1-3.07,1.63,5.79,5.79,0,0,1-1.77-.26,12.13,12.13,0,0,1-2.29-1.15q-.37-.22-2.11-1.15a17.09,17.09,0,0,0-4.06-1.47,21.52,21.52,0,0,0-5.06-.56,11.25,11.25,0,0,0-6.05,1.44,4.35,4.35,0,0,0-2.29,3.81,3.25,3.25,0,0,0,.81,2.29,8.22,8.22,0,0,0,3,1.74,43.84,43.84,0,0,0,6.57,1.73,44.07,44.07,0,0,1,11.15,3.74,14.22,14.22,0,0,1,5.76,5.06,13.12,13.12,0,0,1,1.7,6.79,14.18,14.18,0,0,1-2.73,8.6A17.5,17.5,0,0,1,168,321.5a29.66,29.66,0,0,1-11.41,2A44,44,0,0,1,145.66,322.24Z"/><path class="cls-1" d="M236.38,317.25a5.27,5.27,0,0,1-2,4.13,6.6,6.6,0,0,1-4.47,1.7,5.68,5.68,0,0,1-3.1-.89,6,6,0,0,1-2.21-2.66l-3.32-7.46H197.39l-3.4,7.46a5.78,5.78,0,0,1-5.39,3.55,6.86,6.86,0,0,1-4.54-1.7,5.2,5.2,0,0,1-2-4.13,6.36,6.36,0,0,1,.66-2.73l19.5-40a6.86,6.86,0,0,1,2.84-3.07,8.62,8.62,0,0,1,8.31,0,6.83,6.83,0,0,1,2.88,3.07l19.5,40A6.36,6.36,0,0,1,236.38,317.25ZM202,301.89h14.77l-7.39-16.46Z"/><path class="cls-1" d="M287.63,318a4.88,4.88,0,0,1-2,4,7,7,0,0,1-4.54,1.59,7.07,7.07,0,0,1-3.32-.81,7.35,7.35,0,0,1-2.66-2.44l-9.6-14a7.65,7.65,0,0,0-2.18-2.18,5,5,0,0,0-2.69-.7h-4.8v13.22a6.71,6.71,0,0,1-1.77,4.91,6.52,6.52,0,0,1-4.88,1.81,6.24,6.24,0,0,1-6.72-6.72V277.08a5.67,5.67,0,0,1,6.28-6.27h18.53q9.45,0,14.21,4.1t4.76,11.86a15.58,15.58,0,0,1-3.25,10,15.91,15.91,0,0,1-9.16,5.5,10,10,0,0,1,4.24,1.63,15.14,15.14,0,0,1,3.58,3.76l4.58,6.57A6.87,6.87,0,0,1,287.63,318Zm-16-26.22a5.24,5.24,0,0,0,2-4.58q0-3.25-2-4.69t-6.46-1.44h-9.45v12.12h9.45Q269.69,293.18,271.64,291.77Z"/><path class="cls-1" d="M297.71,321.5a6.64,6.64,0,0,1-1.81-4.91V277.08a6.54,6.54,0,0,1,1.81-4.83,6.65,6.65,0,0,1,4.91-1.81,6.87,6.87,0,0,1,5,1.81,6.46,6.46,0,0,1,1.85,4.83v39.51a6.56,6.56,0,0,1-1.85,4.91,6.87,6.87,0,0,1-5,1.81A6.65,6.65,0,0,1,297.71,321.5Z"/></svg>